<?xml version="1.0" standalone="no"?>
<!DOCTYPE svg PUBLIC "-//W3C//DTD SVG 1.1//EN" "http://www.w3.org/Graphics/SVG/1.1/DTD/svg11.dtd">
<svg xmlns="http://www.w3.org/2000/svg">
<metadata>Generated by Fontastic.me</metadata>
<defs>
<font id="metaphor-widgets" horiz-adv-x="512">
<font-face font-family="metaphor-widgets" units-per-em="512" ascent="480" descent="-32"/>
<missing-glyph horiz-adv-x="512" />

<glyph unicode="&#57344;" d="M314 370c39 0 72 32 72 71 0 39-33 71-72 71-39 0-71-32-71-71 0-39 32-71 71-71z m14-186c1 13 1 16 2 26 90-12 136 33 136 33 0 0-20 39-43 71-49-21-70-29-86-26-20 4-26 24-25 31-25 13-51 27-79 41-46-36-67-109-65-183-32-61-56-76-122-91 12-29 18-45 36-86 82 22 131 72 163 113 55-14 99-49 132-112 35 29 39 32 68 55-23 55-63 102-117 128z"/>
<glyph unicode="&#57345;" d="M280 344c-13-1-32-2-47-4-22-3-44-6-62-15-36-15-65-45-65-91 0-56 38-95 84-95 16 0 28 2 40 5 18 5 39 16 57 35 11-14 15-21 34-36 4-2 9-2 13 1 12 9 37 37 47 46 5 4 4 10 1 15-14 12-22 25-22 51l0 82c0 36 1 70-26 95-22 20-57 28-84 28l-17 0c-49-3-101-24-112-85-2-8 3-10 7-11l54-7c6 1 9 6 10 10 5 22 22 32 41 34l9 0c12 0 24-5 31-14 8-12 7-23 7-36z m-1-56c0-22 1-39-11-58-6-14-18-23-30-25-2 0-10-1-13-1-21 0-33 16-33 40 0 31 18 45 41 52 13 3 32 4 46 4z m230-118c-3 7-20 16-53 13-9-1-40-8-48-11-6-3-7-13-1-13 6 0 14-1 22-2 24 3 42-2 46-10 6-11-16-49-29-63-12-13 5-16 15-10 29 16 45 54 49 74 0 0 5 14-1 22z m-86-46c-65-24-99-30-174-30-89 0-170 20-239 60-6 4-14-5-8-10 64-58 138-93 241-93 59 0 115 15 167 47 7 4 14 8 20 13 10 7 2 17-7 13z"/>
<glyph unicode="&#57346;" d="M52 340c-20 0-36-16-36-36l0-96c0-20 16-36 35-36 20 0 37 16 37 36l0 96c0 20-16 36-36 36z m60-217c0-14 12-25 26-25l22 0 0-61c0-20 16-36 36-36 20 0 36 16 36 36l0 61 48 0 0-62c0-20 16-36 36-36 20 0 36 16 36 36l0 61 22 0c14 0 26 11 26 26l0 218-288 0z m233 330l21 36c2 3 0 16-6 21-6 4-17-2-19-5l-29-39c-17 6-36 10-55 10-20 0-39-4-57-10l-26 40c-2 3-10 9-18 5-8-5-11-17-9-19l20-41c-29-19-55-44-55-88l288 0c0 44-23 69-55 90z m-137-67c-14 0-25 11-25 24 0 13 11 24 25 24 13 0 24-11 24-24 0-13-11-24-24-24z m96-1c-13 0-24 11-24 25 0 13 11 24 24 24 14 0 25-11 25-24 0-14-11-25-25-25z m156-44c-20 0-36-16-36-36l0-98c0-20 16-36 36-36 20 0 36 16 36 36l0 98c0 20-16 36-36 36z"/>
<glyph unicode="&#57347;" d="M299 151c-9 0-17-6-22-12l0 76-22 0 0-213 22 0 0 10c5-6 12-11 23-11 11 0 20 12 20 26l0 98c0 13-10 26-21 26z m0-111c0-9-10-11-13-11-4 0-9 2-9 11l0 69c0 9 7 10 10 10 4 0 12-1 12-10z m-86 0c0-4-5-11-12-11-6 0-9 7-9 11l0 110-22 0 0-117c0-18-3-33 19-33 8 0 15 4 19 12l0-10 27 0 0 148-22 0z m-21 175l-106 0 0-22 42 0 0-191 22 0 0 190 42 0 0 23z m276 297l-424 0c-24 0-43-19-43-41l0-152c0-23 19-41 43-41l424 0c24 0 43 18 43 41l0 152c0 22-19 41-43 41z m-277-134l0-58-20 1 0 56-34 92 22 0 22-63 22 63 23 0z m108-34c0-13-9-24-33-24-25 0-32 11-32 24l0 80c0 13 8 24 32 24 25 0 33-11 33-24z m84-23l-22 0 0 10c-3-6-13-13-20-13-21 0-21 16-21 29l-1 101 22 0 0-95c0-8 4-11 10-11 6 0 11 4 11 11l0 95 21 0 0-127z m-117 106c-5 0-10-1-10-6l0-74c0-5 5-6 10-6 5 0 11 1 11 6l0 74c0 5-6 6-11 6z m106-276c-21 0-31-9-31-26l0-94c0-17 11-30 32-30 21 0 31 13 31 30l0 20-21 0 0-18c0-7-6-9-10-9-4 0-11 2-11 9l0 33 42 0 0 59c0 17-10 26-32 26z m11-64l-21 0 0 32c0 7 7 8 11 8 4 0 10-1 10-8z"/>
<glyph unicode="&#57348;" d="M330 440c18 19 30 46 27 72-26-1-57-15-75-34-16-17-31-44-27-69 29-2 58 12 75 31z m64-210c0 63 53 90 55 91-30 43-76 49-93 50-39 4-81-20-101-20-20 0-47 19-79 18-43 0-83-16-105-54-45-76-11-190 32-252 21-30 47-64 80-63 32 1 44 21 83 21 39 0 50-21 84-20 34 0 56 31 77 61 25 35 35 70 35 71-1 1-67 21-68 97z"/>
<glyph unicode="&#57349;" d="M313 391l-117 0c-25 0-46-20-46-45 0-25 21-45 46-45l118 0c58 0 107-47 107-106 0-58-49-104-107-104l-116 0c-58 0-107 48-107 106 0 89 1 179 1 268 0 25-20 47-45 47-26 0-47-22-47-47l0-265c0-120 82-200 199-200l114 0c108 0 199 86 199 195 0 116-76 196-199 196z"/>
<glyph unicode="&#57350;" d="M445 366l1 48-105-1 1-47z m-244-96c27 13 42 34 42 65 0 58-40 77-98 77l-145 0 0-312 149 0c56 0 109 27 109 90 0 39-19 69-57 80z m-133 89l63 0c24 0 46-4 46-34 0-26-17-35-41-35l-68 0 0 69z m72-208l-72 0 0 87 73 0c29 0 49-13 49-45 0-33-23-42-50-42z m266-6c-34 0-55 15-55 59l161 0c4 69-33 129-109 129-67 0-113-50-113-117 0-69 43-118 113-118 51 0 88 22 105 75l-54 0c-4-14-24-28-48-28z m-4 143c29 0 43-16 48-47l-99 0c1 17 12 47 51 47z"/>
<glyph unicode="&#57351;" d="M256 397c-62 0-133-23-175-53l0 141-81 0 0-277 0-1c0-93 117-180 256-180 141 0 256 89 256 185 0 96-115 185-256 185z m-1-296c-92 0-167 48-167 111 0 64 75 115 167 115 93 0 168-51 168-115 0-63-75-111-168-111z m0 191c-63 0-115-36-115-79 0-44 52-78 115-78 64 0 115 34 115 78 0 43-51 79-115 79z"/>
<glyph unicode="&#57352;" d="M475 307c-3 0-3 0-20 0-22 0-20 22-20 22 0 132-80 183-167 183l-111 0c-87 0-157-75-157-168l0-176c0-93 70-168 157-168l198 0c87 0 157 75 157 168 0 0 0 51 0 99 0 23-17 40-37 40z m-321 78l125 0c15 0 26-11 26-26 0-15-11-26-26-26l-125 0c-14 0-26 11-26 26 0 15 12 26 26 26z m205-257l-206 0c-15 0-26 10-26 26 0 16 11 26 26 26l206 0c15 0 25-10 25-26 0-16-10-26-25-26z"/>
<glyph unicode="&#57353;" d="M276 303l66 209-18-1-207-301 124 0-72-210 17 1 209 302z"/>
<glyph unicode="&#57354;" d="M501 512l-490 0c-6 0-11-5-11-11l0-490c0-6 5-11 11-11l490 0c6 0 11 5 11 11l0 490c0 6-5 11-11 11z m-10-491l-235 0 0 235-235 0 0 235 235 0 0-235 235 0z"/>
<glyph unicode="&#57355;" d="M283 300c0 0-36 0-74 1 13-24 44-80 62-112l241 65c0 0-53 130-335 103-2 0-10-1-12-1l-20 37-53-22 19-41c-170-81-94-211-94-211l234 63c-11 21-35 68-70 132 80 21 175-4 204-44-35-8-74-18-74-18z m-195-103c-8 41 16 80 40 89 15-27 35-69 35-69 0 0-50-11-75-20z"/>
<glyph unicode="&#57356;" d="M88 323l-88 0 0-155 134 0 0 222-45 0z m1-111l-45 0 0 67 45 0z m110 177l-43 0-1-43 44 0 0 43z m-43-221l44 0 0 155-44 1z m66 21l90 0 0-21-66 0 0-45 111 0 0 200-135 0z m45 90l45 0 0-44-45 0z m112 44l0-133 88 0 0-23-67 0 0-45 112 0 0 201z m89-88l-45 0 0 44 45 0z"/>
<glyph unicode="&#57357;" d="M256 512c-141 0-255-115-255-256 0-141 114-256 255-256 141 0 255 115 255 256 0 141-114 256-255 256z m210-245c-52 6-102 7-149 0-6 15-12 29-18 43 46 19 86 45 120 80 28-34 45-76 47-123z m-210 200c53 0 101-19 138-51-33-32-71-56-112-73-23 46-50 85-79 117 17 5 35 7 53 7z m-95-22c30-38 55-71 78-111-59-18-123-31-189-34 14 64 55 116 111 145z m-116-189c0 3 1 6 1 8 73 4 137 11 189 28 7 2 0-7 7-4 15-19 17-22 22-34-52-17-115-56-168-135-32 37-51 85-51 137z m211-211c-49 0-94 16-129 44 43 69 91 109 158 130 20-47 29-99 33-163-14-5-35-11-62-11z m105 29c-3 59-14 109-30 156 39 6 84 6 134-1-8-62-54-122-104-155z"/>
<glyph unicode="&#57358;" d="M512 196l0 0c-2 2-19 24-20 62 0 31-18 63-54 66-35 2-61-29-80-28-6 0-11 1-15 2-1 9-4 16-7 24 2 3 6 7 11 10 15 11 54 0 83 22 28 22 23 64 8 91-14 25-10 60-10 65l1 0c0 0-1 0-1 0 0 0 0 0 0 0l0 0c-3-1-33-14-74-5-30 7-66 0-80-33-13-34 8-68 2-85-3-8-7-14-10-17-2 0-5 0-8 0-3 0-6 0-9 0-3 3-7 9-10 17-6 18 15 52 1 85-14 33-54 42-83 32-40-14-65 4-69 6l-1 0c0 0 0 0 0 0 0 0 0 0 0 0l0 0c1-3 7-38-13-70-17-26-17-65 11-87 29-22 68-10 83-20 6-5 10-9 12-12-3-9-6-17-7-27-4 0-8-1-14-1-18 1-42 33-78 32-36 0-56-32-58-62-3-37-20-58-22-61l-1 0c0 0 0 0 0 0 0 0 0-1 0-1l0 1c3-1 29-10 52-40 18-26 51-42 82-24 31 18 34 59 50 69 10 7 19 8 23 8 3-2 6-4 9-6l-1 0c0 0 4-10-2-27-5-18-43-32-52-67-9-34 16-62 45-72 25-9 50-37 52-41l0 0c0 0 0 0 0 0 1 0 1 0 1 0l0 0c1 3 26 31 52 41 29 11 54 38 45 72-9 35-47 49-53 67-5 17-1 27-1 27l-2 0c5 3 10 6 14 10 4-2 9-4 15-8 15-11 16-51 46-71 30-20 64-5 83 19 23 28 49 35 53 37l1-1c0 0 0 1 0 1 0 0 0 0 0 0z m-247 49c-20 0-36 17-36 38 0 21 16 38 36 38 20 0 36-17 36-38 0-21-16-38-36-38z"/>
<glyph unicode="&#57359;" d="M0 1l121 0 0 332-121 0z m395 345c-40 0-80-21-100-56l-1 0 0 44-113 0 0-333 121 0 0 180c0 37 3 73 45 73 56 0 45-48 45-94l0-159 120 0 0 213c0 49-4 132-117 132z m-334 165c-33 0-60-28-60-61 0-34 27-61 60-61 34 0 61 27 61 61 0 33-27 61-61 61z"/>
<glyph unicode="&#57360;" d="M509 219c-8 33-29 51-101 69-57 15-41 60-26 72 15 12 59 30 68-16 18 9 16 9 35 20-11 50-84 60-129 27-39-30-46-112 23-137 52-19 85-22 89-50 3-25-8-48-33-56-16-6-39-8-60 4-18 10-21 19-37 56-17 40-27 68-49 114-17 36-51 70-104 82-43 10-91 4-132-32-47-40-57-97-52-140 7-51 38-84 62-102 52-38 145-45 207 27-15 25-16 25-25 46-45-72-112-63-147-45-40 20-56 64-56 98 1 33 17 61 27 72 27 28 60 39 90 37 44-2 78-31 89-54 34-71 35-81 52-118 15-32 24-53 39-65 14-13 47-36 113-17 40 12 70 52 57 108z"/>
<glyph unicode="&#57361;" d="M66 512l380 0c36 0 66-30 66-66l0-380c0-36-30-66-66-66l-380 0c-36 0-66 30-66 66l0 380c0 36 30 66 66 66z m307-57c-13 0-23-10-23-23l0-55c0-13 10-23 23-23l58 0c13 0 23 10 23 23l0 55c0 13-10 23-23 23z m81-160l-45 0c4-13 7-28 7-43 0-86-72-155-160-155-87 0-159 69-159 155 0 15 3 30 7 43l-47 0 0-216c0-11 9-20 20-20l357 0c11 0 20 9 20 20l0 216z m-198 62c-56 0-102-45-102-100 0-55 46-100 102-100 57 0 103 45 103 100 0 55-46 100-103 100z"/>
<glyph unicode="&#57362;" d="M256 512c-141 0-256-115-256-256 0-141 115-256 256-256 141 0 256 115 256 256 0 141-115 256-256 256z m106-269c-42 54-101 114-182 128 3-28 6-72-12-105-17-32-51-48-81-42-12 2-21 14-21 41 0 21 4 38 13 61 28 70 96 122 177 122 91 0 168-64 187-149 5-20 9-60-5-79-15-21-49-13-76 23z"/>
<glyph unicode="&#57363;" d="M321 393c-2-5-7-9-14-16 78-43 96-97 25-153 7-9 8-10 13-19 58 34 82 69 82 98-1 34-61 73-106 90z m-65 87c-141 0-256-82-256-182 0-82 89-167 212-183-7-29-26-59-53-83 41 6 105 41 134 82 137 14 219 103 219 184 0 100-115 182-256 182z m0-323c-115 0-208 67-208 145 0 67 93 133 208 133 115 0 208-67 208-133 0-78-93-145-208-145z"/>
<glyph unicode="&#57364;" d="M502 378l-73 0 0 73c0 6-4 10-10 10l-21 0c-5 0-10-4-10-10l0-73-73 0c-5 0-10-4-10-10l0-20c0-6 5-11 10-11l73 0 0-72c0-6 5-10 10-10l21 0c6 0 10 4 10 10l0 72 73 0c5 0 10 5 10 11l0 20c0 6-5 10-10 10z m-224 95l-129 0c-14 0-28-2-42-7-47-16-79-56-79-97 0-58 45-102 105-103-2-5-2-9-2-14 0-9 2-17 7-25l-2 0c-57 0-109-28-128-70-5-11-8-22-8-33 0-10 3-20 8-30 12-22 39-39 74-48 19-5 39-7 59-7 19 0 36 2 53 7 51 15 83 52 83 95 0 42-13 67-49 92-15 11-29 27-29 32 0 8 1 13 21 28 25 21 40 47 40 75 0 26-8 48-21 64l10 0c2 0 4 1 6 2l28 21c4 2 6 7 4 11-1 4-5 7-9 7z m-184-102c-3 21 2 40 12 52 7 8 16 12 26 12l1 0c28-1 55-33 60-71 3-21-1-41-12-53-7-8-16-12-26-12l-1 0c-27 1-55 34-60 72z m129-224c1-4 1-7 1-11 0-37-28-56-83-56-42 0-75 25-75 58 0 30 39 57 82 57l2 0c9 0 18-2 27-5 3-2 6-4 9-5 20-14 33-23 37-38z"/>
<glyph unicode="&#57365;" d="M114 370c-63 0-114-51-114-114 0-63 51-114 114-114 62 0 113 51 113 114 0 63-51 114-113 114z m284 0c-62 0-113-51-113-114 0-63 51-114 113-114 63 0 114 51 114 114 0 63-51 114-114 114z"/>
<glyph unicode="&#57366;" d="M445 158c-27-66-99-127-189-127-103 0-173 87-184 129-28-14-45-36-45-59 0-52 73-101 228-101 155 0 230 49 230 100 0 22-9 41-40 58z m-191-86c66-1 125 52 151 112 42 96-34 168-89 197 0-53-14-133-90-104 22 27 35 48 29 89-9 57-57 64-30 146-74-66-118-148-126-235-9-93 36-203 155-205z m-75 250c-21-65 10-134 65-132 72 2 87 67 93 100 26-24 53-87 20-133-44-62-123-72-178-27-38 30-60 123 0 192z"/>
<glyph unicode="&#57367;" d="M294 346l0 53c0 20 13 25 22 25 10 0 58 0 58 0l0 88-79 0c-88 0-107-65-107-107l0-59-51 0 0-90 51 0c0-116 0-256 0-256l106 0c0 0 0 141 0 256l72 0 9 90z"/>
<glyph unicode="&#57368;" d="M88 414c17 0 37 0 44 0 6 1 14 1 14 12l0 41c0 27 15 37 21 43-32-2-102-75-114-103 13 10 19 7 35 7z m367-17c-4 38-29 66-67 66-21 0-62 0-95 0-1 20 4 30-11 39-15 9-40 11-61 9-29-3-37-16-46-32-6-11-3-61-3-72 0-11-9-18-22-18-13 0-53 0-69 1-20 1-31-5-31-25-1-44 4-108 15-138 11-31 26-50 40-57 41-19 71-26 95-24 24 2 30 9 38 20 9 11 10 24 11 33 0 13 14 13 15 2 1-12 2-12 10-19 17-14 54 1 79-12 34-18 30-51 30-69 0-22-19-37-47-38-26 0-39 2-39 19 0 20 44 17 44 17l0 45c0 0-21 3-44 2-24-1-54-15-54-71-1-58 55-75 96-75 32 0 55 7 74 23 28 24 35 65 43 121 12 97 3 220-1 253z m-120-125c5 15 15 26 31 23 21-3 21-15 23-28-20 6-25 5-54 5z"/>
<glyph unicode="&#57369;" d="M457 328c-3-13-12-43-24-60-13 60-12 89-58 148-33 42-88 83-123 96 7-8 14-41 13-51-4-27-43-51-68-74 0 25-25 60-28 64-4-60-32-106-69-154-29-38-27-79-11-128-18 5-45 48-50 63-1-134 88-234 215-232 75 1 148 22 194 106 44 80 19 173 9 222z m-196-297c-42-1-74 18-101 55-28 41-44 103-30 157 3-15 25-25 36-36 8 54 33 127 102 165-4-13-10-21-8-44 2-16 5-32 13-41 0 7 18 38 33 44-1-24 2-54 19-67 44-33 54-50 53-102 14 2 28 11 41 22-5-75-63-152-158-153z"/>
<glyph unicode="&#57370;" d="M462 368l-39-79-40 79-50 0 13-20c-3 3-11 6-16 6-14 0-28 1-35-1-20-7-28-17-28-30 0-7 0-22 0-22 0 0 36 0 45 0 0 10-2 29 11 29 15 0 11-16 11-23l0-28c-10 0-47 0-63-9 0 21-15 23-27 23-13 0-14-3-21-14l0 66-44 0 0-68c-6 3-22 15-29 17-13 4-28 7-47 7-63 0-103-21-103-68 0-58 60-68 103-68 27 0 57 10 76 19l0-39 44 0 0 16c7-12 6-17 20-17 24 0 33 11 33 28 15-10 49-3 58 7 0-5 0-11 0-11l45 0 0 107 22-39 0-69 44 0 0 69 67 132z m-360-90c24 0 32-3 34-22l-68 0c4 17 16 22 34 22z m77-67l-47 0c-5-9-14-20-30-20-19 0-32 21-34 43l111 0z m67-22c0-9-4-12-12-12-4 0-11 2-11 15l0 58c2 11 3 15 10 15 10 0 13-5 13-13z m77 8c-11 0-12 5-12 11l0 25c0 5 1 13 7 19 8 6 16 4 16 4 0 0 0-25 0-34 0-11 2-25-11-25z"/>
<glyph unicode="&#57371;" d="M506 149l-90 0-31 94-32-94-90 0 70-57-30-92 82 59 79-59-29 92z m-169 19l47 135 48-134 73 0-121 343-108-283-270 0 276-216 20 70-90 85z"/>
<glyph unicode="&#57372;" d="M512 71l0 370-512 0 0-370 114 0 0 258 85 0 0-258 114 0 0 258 86 0 0-258z"/>
<glyph unicode="&#57373;" d="M432 290c0 3 0 6 0 9 0 75-57 136-127 136-48 0-89-28-111-69-11 13-26 17-50 17-34-1-71-32-67-77 1-8 7-20 8-23-48-9-85-45-85-98 0-60 45-108 101-108l310 0c56 0 101 48 101 108 0 52-35 95-80 105z"/>
<glyph unicode="&#57374;" d="M183 332c-18 0-32-9-42-26-5 17-16 26-33 26-11 0-21-3-30-11l-13-15 3 22-45 0-23-144 50 0 12 82 5 18c3 5 8 8 13 8 7 0 11-4 11-12l0-11-14-85 49 0 14 82 4 18c3 5 7 8 13 8 7 0 11-4 11-12l-1-11-13-85 54 0 10 97 1 14c-2 22-12 37-36 37z m119-31c10-1 18-6 22-16l38 10c-8 24-27 37-56 38-19 1-34-2-46-10-14-9-21-22-22-41 0-22 20-31 53-39 16-5 22-11 20-21-2-7-7-10-19-9-13 0-22 5-26 18l-40-10c10-28 31-43 66-43 17 0 31 4 44 12 13 9 21 22 22 39 1 16-5 26-17 35-8 5-23 8-37 11-15 3-20 10-20 15 0 7 7 12 18 11z m199 22c-6 7-15 11-27 11-12 0-22-4-31-11-5-4-9-9-13-16l4 22-49 0-23-145 51 0 14 86c3 15 9 23 20 23 8 0 12-4 12-12l-15-97 56 0 11 94 1 18c0 11-4 20-11 27z"/>
<glyph unicode="&#57375;" d="M383 319l1 0c53 0 97 43 97 96 0 54-44 97-97 97l-1 0c-53 0-96-43-96-97 0-53 43-96 96-96z m-189 22l2 0c38 0 68 31 68 69 0 38-30 69-68 69l-2 0c-38 0-68-31-68-69 0-38 30-69 68-69z m-146 10c26 0 48 22 48 48 0 26-22 48-48 48-26 0-48-22-48-48 0-26 22-48 48-48z m342-58c-39 0-79-20-102-49 1 57-41 75-91 76-32 0-51-12-67-35-5 31-33 44-65 44-37 0-65-18-65-55 0 0 0-70 0-114l96 0 0-97c82 0 97 0 160 0l0-63c104 0 156 1 256 1 0 57 0 174 0 174 0 65-57 118-122 118z"/>
<glyph unicode="&#57376;" d="M511 342l-169-1 0 171-171 0 0-170-170 0 0-171 170 0 0-171 170 0 0 171 170 0z"/>
<glyph unicode="&#57377;" d="M348 217c6-3 13-6 20-6 22 0 40 18 40 40 0 21-18 39-40 39-21 0-39-18-39-39 0-4 0-8 2-11l-55-31 0 108 72 43c6-3 13-6 20-6 22 0 40 18 40 40 0 21-18 39-40 39-21 0-39-18-39-39 0-4 0-8 2-11l-55-32 0 161-38 0 0-87-56 31c1 3 1 6 1 9 0 22-18 39-39 39-22 0-40-17-40-39 0-22 18-39 40-39 8 0 16 2 22 7l72-43 0-108-56 31c1 3 1 6 1 9 0 22-18 40-39 40-22 0-40-18-40-40 0-21 18-39 40-39 8 0 16 3 22 7l72-43 0-108-56 31c1 3 1 6 1 9 0 22-18 40-39 40-22 0-40-18-40-40 0-21 18-39 40-39 8 0 16 3 22 7l72-42 0-105 38 0 0 31 72 43c6-3 13-5 20-5 22 0 40 17 40 39 0 22-18 39-40 39-21 0-39-17-39-39 0-4 1-8 2-11l-55-31 0 108z"/>
<glyph unicode="&#57378;" d="M256 511c-141 0-256-114-256-255 0-141 115-255 256-255 141 0 256 114 256 255 0 141-115 255-256 255z m0-430c-97 0-176 79-176 175 0 97 79 176 176 176 97 0 176-79 176-176 0-96-79-175-176-175z"/>
<glyph unicode="&#57379;" d="M370 510l-256 0-114-508 150 0 41 158 110 0c103 0 183 64 206 169 28 130-62 181-137 181z m4-176c-11-44-51-78-90-78l-63 0 30 159 69 0c36 0 69-29 54-81z"/>
<glyph unicode="&#57380;" d="M358 489c-30 17-69 23-102 23-31 0-63-6-91-16l193-173z m-216-5c-81-43-142-130-142-228 0-22 3-45 11-67l229 205z m-14-450l0 222-108-97c22-51 61-97 108-125z m255 444l0-297 116 0c8 25 13 47 13 75 0 95-53 177-129 222z m-229-456c30-12 68-22 102-22 102 0 193 68 235 154l-337 0z"/>
<glyph unicode="&#57381;" d="M268 512c-140 0-210-100-210-184 0-50 19-95 60-112 7-3 13 0 15 7 1 5 4 18 6 24 2 7 1 10-4 16-12 14-20 32-20 58 0 74 56 141 145 141 79 0 122-48 122-113 0-85-37-156-93-156-31 0-54 25-46 56 8 38 26 78 26 105 0 24-13 44-40 44-32 0-57-33-57-76 0-28 10-47 10-47 0 0-33-136-38-160-11-48-2-106-1-112 0-3 5-4 7-1 3 3 40 50 53 96 4 13 21 81 21 81 10-20 40-37 71-37 95 0 159 86 159 202 0 87-74 168-186 168z"/>
<glyph unicode="&#57382;" d="M56 512l0-512 111 0 0 157 289 0 0 355z m289-245l-178 0 0 135 178 0z"/>
<glyph unicode="&#57383;" d="M261 512c-50 0-94-18-114-59l-1 0 0 50-63 0 0-503 63 0 0 180 1 0c27-44 78-58 115-58 112 0 167 88 167 194 0 105-56 196-168 196z m-2-336c-83 0-113 68-113 141 0 70 29 141 109 141 78 0 110-68 110-138 0-73-24-144-106-144z"/>
<glyph unicode="&#57384;" d="M255 357c-15 0-42 0-42 0l0-103c0 0 21 0 37 0 43 0 78-26 78-71 0-47-23-80-69-80-44 0-73 34-73 80 0 38 0 329 0 329l-102 0c0 0 0-302 0-336 0-97 77-176 171-176 94 0 173 76 173 178 0 98-79 179-173 179z"/>
<glyph unicode="&#57385;" d="M484 349l13 24-208 0 6-24 62-8-98-95-100 150 72 8 0 17-231 0 6-21 56-9 150-171 0-95-70-13-1-21 212 0 0 24-68 13-2 72 139 141z m-5-195l33 127-70 8 10-123z m-34-63l34 0 5 35-38 7z"/>
<glyph unicode="&#57386;" d="M256 512c-141 0-256-115-256-256 0-141 115-256 256-256 141 0 256 115 256 256 0 141-115 256-256 256z m-212-256c0 31 6 60 18 86l101-277c-70 34-119 107-119 191z m212-212c-21 0-41 3-60 9l64 184 65-178c0-1 1-2 1-3-22-8-45-12-70-12z m28 316c12 1 24 2 24 2 11 2 10 18-1 18 0 0-35-3-57-3-21 0-56 3-56 3-11 0-13-17-1-18 0 0 11-1 22-2l31-88-47-139-73 227c13 1 24 2 24 2 12 2 10 18-1 18l-57-3c0 0-4-1-8 3 39 54 101 88 172 88 55 0 106-21 143-56-1 1-2 1-2 1-21 0-42-12-42-32 0-17 8-28 19-45 8-15 17-33 17-59 0-18-5-41-16-68l-21-62z m79-287l64 187c13 30 17 54 17 76 0 8-1 15-2 22 17-30 26-65 26-102 0-78-42-147-105-183z"/>
<glyph unicode="&#57387;" d="M150 301c57-4 65-9 89-24 10 36 19 63 49 165-22 14-36 32-90 36-55 3-95-25-95-25-31-91-42-118-51-170 27 9 68 19 98 18z m-2-26c-33 2-85-17-104-24-15-54-5-20-44-161 0 0 46 13 85 12 65 0 72-9 97-22 43 149 39 131 52 175-23 7-34 17-86 20z m266 125c-57 4-63 11-99 29-30-104-32-113-48-165 22-12 51-21 99-27 39-4 89 21 103 31 16 55 1 6 43 146 0 0-60-17-98-14z m-44-196c-52 1-80 18-111 32-11-41-18-62-48-166 14-11 30-27 90-35 54-7 103 21 103 21 44 145 37 122 57 187-25-28-54-40-91-39z"/>
<glyph unicode="&#57388;" d="M477 474c-123 40-159-65-176-101-5-10-2-15 6-10 40 29 80-10 60-60-16-43-37-75-59-96-21-20-41-22-52 18-14 52-28 139-36 192-6 42-36 63-81 54-34-6-107-84-138-112-5-5 22-32 28-28 9 7 13 11 26 20 18 13 29-3 42-30 27-55 49-218 81-255 32-35 52-61 125-5 107 82 161 186 188 235 30 55 30 164-14 178z"/>
<glyph unicode="&#57389;" d="M512 415c-19-9-39-14-60-17 21 13 38 34 46 58-20-12-43-20-67-25-19 20-46 33-76 33-59 0-106-47-106-105 0-8 1-16 3-24-87 4-165 46-216 110-9-16-15-34-15-53 0-36 19-69 47-87-17 0-33 5-47 13l0-2c0-50 36-93 84-103-9-2-18-3-28-3-7 0-13 0-20 2 14-42 53-73 99-73-36-29-82-45-131-45-8 0-17 0-25 1 47-30 102-47 161-47 193 0 299 160 299 299 0 4 0 9 0 13 20 15 38 34 52 55z"/>
<glyph unicode="&#57390;" d="M283 175c0 35 0 121 0 121l108 0 0 81-108 0 0 135c0 0-49 0-73 0-5-61-34-121-116-146 0-25 0-69 0-69l81 0c0 0 0-177 0-206 0-58 49-83 86-89 47-7 135 4 157 25l0 107c-86-50-135-26-135 41z"/>
<glyph unicode="&#57391;" d="M131 299c-34 0-61-28-61-62 0-34 27-62 61-62 34 0 61 28 61 62 0 34-27 62-61 62z m0-102c-22 0-40 18-40 40 0 22 18 40 40 40 22 0 40-18 40-40 0-22-18-40-40-40z m-12 27l22 0 0 23-22 0z m250 0l22 0 0 23-22 0z m143 141c0 0-60-5-90-5-47 33-121 51-171 51-52 0-127-24-167-51-29 0-84 5-84 5 0 0 14-28 26-54-16-21-23-47-23-76 0-76 50-127 127-127 40 0 78 21 101 50l17-57 16 0 16 57c23-29 61-50 101-50 78 0 127 47 127 127 0 29-7 55-23 76 13 24 27 54 27 54z m-381-229c-55 0-100 45-100 100 0 55 45 100 100 100 55 0 100-45 100-100 0-55-45-100-100-100z m125 104l0 0c-3 57-20 99-69 115 27 12 4 27 70 27 72 0 45-14 77-28-50-17-76-59-78-114z m124-104c-55 0-100 45-100 100 0 55 45 100 100 100 55 0 100-45 100-100 0-55-45-100-100-100z m0 163c-34 0-61-28-61-62 0-34 27-62 61-62 34 0 62 28 62 62 0 34-28 62-62 62z m0-102c-22 0-40 18-40 40 0 22 18 40 40 40 22 0 40-18 40-40 0-22-18-40-40-40z"/>
<glyph unicode="&#57392;" d="M506 484l-51 0 0-368c0-17-14-31-31-31l-14 0c-17 0-31 14-31 31l0 109c0 49-39 88-87 88l-119 0c-48 0-88-38-88-85 0-47 39-86 86-89l18-1c17-1 31-13 31-27-1-14-16-26-33-26l-187 0 0-57 187 0c48 0 88 37 90 81 1 45-37 84-85 86l-18 1c-17 1-32 15-32 32 0 15 15 29 32 29l118 0c17 0 30-15 30-32l0-109c0-48 40-88 88-88l14 0c49 0 88 40 88 88l0 367c-2 0-4 1-6 1z"/>
<glyph unicode="&#57393;" d="M485 183c7 23 11 48 11 74 0 132-107 238-239 238-26 0-50-4-73-11-20 17-45 28-73 28-61 0-111-50-111-111 0-28 11-53 28-73-7-22-11-46-11-71 0-132 107-239 239-239 25 0 49 4 71 11 20-18 45-29 74-29 61 0 111 50 111 111 0 28-11 53-27 72z m-154-39c-19-16-44-24-75-24-23 0-43 4-60 12-17 8-25 18-25 29 0 8 3 15 8 20 5 4 13 7 22 7 4 0 14-2 28-7 14-4 26-6 36-6 8 0 15 2 21 7 6 5 9 12 9 19 0 8-3 15-9 20-6 5-18 10-37 16-28 8-47 18-58 29-12 11-17 26-17 44 0 24 9 44 27 59 17 16 40 23 69 23 21 0 38-3 51-11 14-7 21-16 21-27 0-8-3-14-8-18-4-5-11-7-19-7-5 0-13 2-23 5-11 3-19 4-24 4-9 0-16-2-22-6-5-4-8-9-8-16 0-11 12-19 35-27 6-1 10-3 13-4 25-8 44-18 55-31 12-13 18-28 18-47 0-26-10-47-28-63z"/>
<glyph unicode="&#57394;" d="M68 136c-37 0-68-31-68-68 0-38 31-68 68-68 37 0 68 30 68 68 0 37-31 68-68 68z m-68 376l0-93c226-13 406-193 420-419l92 0c-14 277-235 499-512 512z m0-188l0-90c127-4 229-106 234-233l89 0c-5 177-147 319-323 323z"/>
<glyph unicode="&#57395;" d="M512 256c1 28-5 46-15 56-10 9-28 18-50 18-17-1-32-7-46-20-35 21-72 40-121 42 0 25-9 88 46 87 21 0 37-1 45-6 0-1 0-2 0-3 0-32 26-58 57-58 32 0 59 26 59 58 0 31-27 59-59 59-21 0-39-12-49-29-14 3-34 6-52 5-73-2-79-51-74-113-51-1-103-13-142-42-14 13-27 18-45 18-22 0-37-3-51-18-14-14-16-26-15-54 1-23 24-45 35-51 0-6-1-6-1-12 0-68 63-162 168-167 26-1 25-2 54-2 30 0 54-2 78 4 96 23 142 97 142 165 0 6 0 7-1 13 11 7 36 27 37 50z m-83 207c18 0 32-14 32-32 0-17-14-31-32-31-18 0-33 14-33 31 0 18 15 32 33 32z m-402-193c1 25 27 33 36 34 9 0 19-4 27-9-22-17-37-33-46-55-8 6-19 12-17 30z m313-210c-25-9-40-8-69-8-23 0-55-3-76 3-74 21-128 65-128 138 0 71 97 129 190 129 93 0 188-65 188-129 0-67-38-109-105-133z m130 178c-10 23-25 40-46 57 8 5 17 10 26 9 9 0 35-9 36-34 1-17-8-26-16-32z m-265-15c0 17-14 30-30 30-17 0-30-13-30-30 0-16 13-30 30-30 16 0 30 14 30 30z m132 30c-17 0-30-14-30-30 0-17 13-30 30-30 16 0 30 13 30 30 0 16-14 30-30 30z m-13-106c-26-27-101-35-137-2-15 14-33-6-21-19 35-39 146-42 181-1 10 13-11 35-23 22z"/>
<glyph unicode="&#57396;" d="M256 512c-141 0-256-115-256-256 0-141 115-256 256-256 141 0 256 115 256 256 0 141-115 256-256 256z m128-288l-96 0 0-96-64 0 0 96-96 0 0 64 96 0 0 96 64 0 0-96 96 0z"/>
<glyph unicode="&#57397;" d="M256 512c-141 0-256-115-256-256 0-141 115-256 256-256 141 0 256 115 256 256 0 141-115 256-256 256z m128-288l-256 0 0 64 256 0z"/>
<glyph unicode="&#57398;" d="M288 352l64 0-112 128-112-128 64 0 0-192-64 0 112-128 112 128-64 0z"/>
<glyph unicode="&#57399;" d="M414 508c-15 8-58 3-109-13-91-61-167-152-173-299-1-3-10 1-12 2-24 46-34 96-14 167 4 6-8 14-10 11-5-4-23-24-36-46-61-106-21-243 86-302 108-60 244-21 304 86 69 125 5 371-36 394z"/>
<glyph unicode="&#57400;" d="M385 145l-89 0 0-104c0-23-18-40-40-40-22 0-40 18-40 40l0 104-89 0c-15 0-28 13-28 28l0 184c0 0 0 1 0 1 2 85 71 154 157 154 86 0 155-69 157-154 0 0 0-1 0-1l0-184c0-16-13-28-28-28z"/>
<glyph unicode="&#57401;" d="M112 270l139 81 0 161-139-80z m-4-180l132 76-132 76z m156-90l140 81 0 161-140-81z m8 346l132-76 0 152z m-24-166l0 152-132-76z m16 152l0-152 132 76z"/>
<glyph unicode="&#57402;" d="M256 512c-141 0-256-115-256-256 0-141 115-256 256-256 141 0 256 115 256 256 0 141-115 256-256 256z m-37-134c75 0 154-15 212-49 7-4 13-11 13-23 0-14-11-24-24-24-5 0-8 1-13 4-47 28-119 43-188 43-35 0-71-3-103-12-3-1-8-3-13-3-14 0-24 11-24 25 0 14 9 21 18 25 37 9 77 14 122 14z m-6-88c67 0 132-17 183-47 8-5 12-11 12-20 0-12-9-20-20-20-6 0-10 2-13 4-42 25-100 41-163 41-32 0-60-4-83-10-6-2-8-4-13-4-11 0-20 10-20 20 0 11 5 19 16 22 29 8 58 14 101 14z m4-83c55 0 106-13 149-39 6-3 10-7 10-16 0-10-8-16-16-16-4 0-7 1-11 3-37 23-83 35-132 35-28 0-55-4-81-9-4-1-10-3-13-3-10 0-17 8-17 16 0 11 7 16 14 18 33 7 64 11 97 11z"/>
<glyph unicode="&#57403;" d="M402 238l0 36c0 5-2 10-5 13-4 4-8 6-13 6l-91 0 0 91c0 5-2 9-6 13-3 3-8 5-13 5l-36 0c-5 0-10-2-13-5-4-4-6-8-6-13l0-91-91 0c-5 0-9-2-13-6-3-3-5-8-5-13l0-36c0-5 2-10 5-13 4-4 8-6 13-6l91 0 0-91c0-5 2-9 6-13 3-3 8-5 13-5l36 0c5 0 10 2 13 5 4 4 6 8 6 13l0 91 91 0c5 0 9 2 13 6 3 3 5 8 5 13z m73 155l0-274c0-23-8-42-24-58-16-16-35-24-58-24l-274 0c-23 0-42 8-58 24-16 16-24 35-24 58l0 274c0 23 8 42 24 58 16 16 35 24 58 24l274 0c23 0 42-8 58-24 16-16 24-35 24-58z"/>
<glyph unicode="&#57404;" d="M402 238l0 36c0 5-2 10-5 13-4 4-8 6-13 6l-256 0c-5 0-9-2-13-6-3-3-5-8-5-13l0-36c0-5 2-10 5-13 4-4 8-6 13-6l256 0c5 0 9 2 13 6 3 3 5 8 5 13z m73 155l0-274c0-23-8-42-24-58-16-16-35-24-58-24l-274 0c-23 0-42 8-58 24-16 16-24 35-24 58l0 274c0 23 8 42 24 58 16 16 35 24 58 24l274 0c23 0 42-8 58-24 16-16 24-35 24-58z"/>
</font>
</defs>
</svg>
